# xmcd CD database file
#
# Track frame offsets:
#	192
#	11077
#	28782
#	37720
#	60270
#	75737
#	93970
#	112260
#	132342
#	148592
#	167432
#
# Disc length: 2469 seconds
#
# Revision: 0
# Processed by: cddbd v1.5.1PL0 Copyright (c) Steve Scherf et al.
# Submitted via: CDex 1.51
#
DISCID=8409a30b
DTITLE=New Celeste - The Celtic Connection
DYEAR=1990
DGENRE=Celtic
TTITLE0=Music For A Found Harmonium
TTITLE1=I Once Loved A Lass
TTITLE2=The Wiggly Jig
TTITLE3=When A Man's In Love
TTITLE4=Don't Think About Me
TTITLE5=Medley: The Banks of the Bann, The Bann Air
TTITLE6=The Celtic Connection Suite
TTITLE7=Medley: The Rocky Road To Dublin, The Out Jig
TTITLE8=Julie
TTITLE9=Medley: Glen Moriston, Reel Ale, Irish Stew
TTITLE10=Fare Thee Well Sweet Mally
EXTD=YEAR: 1990
EXTT0=
EXTT1=
EXTT2=
EXTT3=
EXTT4=
EXTT5=
EXTT6=
EXTT7=
EXTT8=
EXTT9=
EXTT10=
PLAYORDER=
